<?xml version="1.0" encoding="utf-8"?>
<!-- Generator: Adobe Illustrator 27.6.1, SVG Export Plug-In . SVG Version: 6.00 Build 0)  -->
<svg version="1.1" id="Layer_1" xmlns="http://www.w3.org/2000/svg" xmlns:xlink="http://www.w3.org/1999/xlink" x="0px" y="0px"
	 viewBox="0 0 841.89 595.28" style="enable-background:new 0 0 841.89 595.28;" xml:space="preserve">
<path d="M169.17,272.09c0,20.74,0,60.39,0,83.35c30.91,3,26.61-17.74,26.61-44.87C195.99,284.61,197.22,268.04,169.17,272.09z"/>
<path d="M414.88,158.16L63.9,239.21V391.7l351.63,87.46l351.63-86.35V242.48L414.88,158.16z M275.22,248.22l56.48-7.7V388.3
	l-56.48-8.22V248.22z M109.57,270.39c0,0,100.96-14.74,127.7-18.39c29.87,8.74,32.22,29.87,32.22,55.04s0,53.74-19.57,68.35
	c-28.7-3.65-140.35-19.96-140.35-19.96V270.39z M756.39,384.39l-339.65,83.35L74.22,383.09v-66.33h25.17v51.2l315.49,64.43
	l64.73-12.65l-16.83-27.39l-30,4.7L413.87,354l-19.7,42.52l-57-7.7l42.13-79.04l-38.09-71.09l28.43-3.78l-17.22-27.78l60.91-11.74
	l318.91,66.13v55.24h24.13V384.39z"/>
<polyline points="716.87,271.43 716.87,357 672.91,363.13 654.26,310.17 655.3,365.48 611.35,371.61 611.35,256.17 676.04,265.43 
	696.39,325.3 696.13,268.3 716.87,271.43 "/>
<polygon points="369.65,234.91 398.35,230.61 413.87,267.78 430.04,230.61 486.91,238.7 448.3,309.52 489.91,388.7 462.78,392.35 
	"/>
<path d="M593.74,253.57c-9.52-1.04-74.35-10.43-91.17-12.91c-18.91,10.43-28.76,33.52-28.76,69.26s3.2,66.91,28.76,77.28
	c24.52-3.33,72.26-10.24,87.85-12.52c14.8-13.63,15.07-53.15,15.07-69.98C605.48,287.87,602.35,261.39,593.74,253.57z M540,367.04
	c-16.57,0.39-15.91-35.74-15.91-55.57c0-19.83-0.26-49.96,15.91-51.78c16.17-1.83,15,33.78,15,50.61
	C555,327.13,556.57,366.65,540,367.04z"/>
</svg>
