<?xml version="1.0" encoding="utf-8"?>
<!-- Generator: Adobe Illustrator 19.0.0, SVG Export Plug-In . SVG Version: 6.00 Build 0)  -->
<svg version="1.1" id="Layer_1" xmlns="http://www.w3.org/2000/svg" xmlns:xlink="http://www.w3.org/1999/xlink" x="0px" y="0px"
	 viewBox="0 0 738 333.3" style="enable-background:new 0 0 738 333.3;" xml:space="preserve">
<style type="text/css">
	.st0{fill-rule:evenodd;clip-rule:evenodd;}
	.st1{fill-rule:evenodd;clip-rule:evenodd;fill:#FFFFFF;}
</style>
<g>
	<polygon class="st0" points="370.4,3.9 4.3,88.8 4.3,164.1 4.2,238.4 119.9,267.1 370.2,329.4 733.7,240.8 733.7,163.8 733.7,91.3 
			"/>
	<g>
		<g>
			<polygon class="st1" points="223.9,232.2 283.9,240.7 283.9,83.8 223.9,92.3 			"/>
		</g>
		<g>
			<polygon class="st1" points="287.5,241.5 348,249.8 368.7,205.2 388.6,250.2 449.1,241.6 405.1,157.7 445.9,82.5 385.5,74.2 
				368.7,113.9 352.2,74 291.7,82.9 331.9,157.7 			"/>
		</g>
		<g>
			<polygon class="st1" points="689.1,117 689.1,207.8 643,214.3 622.9,157.9 624.2,217 577.8,223.3 577.8,101.2 645.9,110.8 
				667.7,175 667.1,113.9 			"/>
		</g>
		<g>
			<path class="st1" d="M502.2,104.6c-16.5,0-16.7,33-16.7,55.1c0,25.2-1.1,58.7,15.9,58.7c17.4,0,15.7-29,16.3-57.6
				C517.8,137.3,519.3,104.6,502.2,104.6z M463.1,85.1c0,0-12.1,4.5-20.7,20.3c-8.8,16.3-10.1,36.1-10.1,66.1
				c0,21.2,3,36.9,9.2,48.9c7.4,14.3,20.5,19.4,20.5,19.4l93.3-13.2c0,0,8.9-9.1,12.7-28.3c2.8-14.1,3-25.5,3.3-35.5
				c0.5-20.3-2-37.3-3.3-43.9c-2.2-11.1-8.9-20.5-8.9-20.5L463.1,85.1z"/>
		</g>
		<g>
			<path class="st1" d="M112.3,117.4v91.9H125c0,0,6.7-0.9,11-4.8c7.6-6.9,7.6-32,7.2-43.7c-0.3-11.7,0.6-35.5-8.1-40.2
				c-5.2-2.8-12.9-3.2-12.9-3.2H112.3z M50.5,117.3l134.5-19.2c0,0,9.8-2.2,23.6,13c11.4,12.7,11,40.4,10.9,50.4
				c-0.4,29.7-1.6,38.1-6.2,49.3c-6.3,15.6-14.3,17.6-14.3,17.6L50.5,207.8V117.3z"/>
		</g>
	</g>
</g>
</svg>
