<?xml version="1.0" encoding="UTF-8" standalone="no"?>
<!-- Created with Inkscape (http://www.inkscape.org/) -->

<svg
   xmlns:dc="http://purl.org/dc/elements/1.1/"
   xmlns:cc="http://creativecommons.org/ns#"
   xmlns:rdf="http://www.w3.org/1999/02/22-rdf-syntax-ns#"
   xmlns:svg="http://www.w3.org/2000/svg"
   xmlns="http://www.w3.org/2000/svg"
   xmlns:sodipodi="http://sodipodi.sourceforge.net/DTD/sodipodi-0.dtd"
   xmlns:inkscape="http://www.inkscape.org/namespaces/inkscape"
   width="210mm"
   height="297mm"
   viewBox="0 0 210 297"
   version="1.1"
   id="svg8"
   inkscape:version="0.92.3 (2405546, 2018-03-11)"
   sodipodi:docname="Dixon Logo Mono (Tagline).svg">
  <defs
     id="defs2">
    <clipPath
       id="clipPath42"
       clipPathUnits="userSpaceOnUse">
      <path
         inkscape:connector-curvature="0"
         id="path40"
         d="M 0,612 H 792 V 0 H 0 Z" />
    </clipPath>
  </defs>
  <sodipodi:namedview
     id="base"
     pagecolor="#ffffff"
     bordercolor="#666666"
     borderopacity="1.0"
     inkscape:pageopacity="0.0"
     inkscape:pageshadow="2"
     inkscape:zoom="0.35"
     inkscape:cx="400"
     inkscape:cy="560"
     inkscape:document-units="mm"
     inkscape:current-layer="layer1"
     showgrid="false"
     showborder="false"
     inkscape:window-width="1920"
     inkscape:window-height="1018"
     inkscape:window-x="-8"
     inkscape:window-y="-8"
     inkscape:window-maximized="1" />
  <metadata
     id="metadata5">
    <rdf:RDF>
      <cc:Work
         rdf:about="">
        <dc:format>image/svg+xml</dc:format>
        <dc:type
           rdf:resource="http://purl.org/dc/dcmitype/StillImage" />
        <dc:title></dc:title>
      </cc:Work>
    </rdf:RDF>
  </metadata>
  <g
     inkscape:label="Layer 1"
     inkscape:groupmode="layer"
     id="layer1">
    <g
       transform="matrix(0.52228269,0,0,-0.52228269,-123.08413,266.34483)"
       inkscape:label="Dixon Logo Mono (Tagline)"
       id="g18">
      <g
         transform="translate(31.272,430.5527)"
         id="g20">
        <path
           inkscape:connector-curvature="0"
           id="path22"
           style="fill:#231f20;fill-opacity:1;fill-rule:evenodd;stroke:none"
           d="M 0,0 366.142,84.9 729.49,-2.537 V -152.042 L 365.968,-240.658 0,-149.505 Z" />
      </g>
      <g
         transform="translate(249.5586,288.1162)"
         id="g24">
        <path
           inkscape:connector-curvature="0"
           id="path26"
           style="fill:#ffffff;fill-opacity:1;fill-rule:evenodd;stroke:none"
           d="M 0,0 59.984,-8.518 V 148.418 L 0,139.901 Z" />
      </g>
      <g
         transform="translate(313.165,278.874)"
         id="g28">
        <path
           inkscape:connector-curvature="0"
           id="path30"
           style="fill:#ffffff;fill-opacity:1;fill-rule:evenodd;stroke:none"
           d="M 0,0 60.528,-8.336 81.185,36.243 101.12,-8.699 161.648,-0.182 117.61,83.722 158.384,158.929 98.04,167.264 81.185,127.578 64.695,167.444 4.169,158.567 44.401,83.722 Z" />
      </g>
      <g
         transform="translate(714.7441,403.3721)"
         id="g32">
        <path
           inkscape:connector-curvature="0"
           id="path34"
           style="fill:#ffffff;fill-opacity:1;fill-rule:evenodd;stroke:none"
           d="m 0,0 v -90.791 l -46.027,-6.524 -20.116,56.359 1.267,-59.077 -46.391,-6.341 V 15.765 l 68.136,-9.604 21.747,-64.151 -0.544,61.07 z" />
      </g>
      <g
         id="g36">
        <g
           clip-path="url(#clipPath42)"
           id="g38">
          <g
             transform="translate(488.7666,435.2661)"
             id="g44">
            <path
               inkscape:connector-curvature="0"
               id="path46"
               style="fill:#ffffff;fill-opacity:1;fill-rule:evenodd;stroke:none"
               d="m 0,0 c 0,0 -12.145,-4.53 -20.659,-20.296 -8.822,-16.329 -10.15,-36.063 -10.15,-66.146 0,-21.203 2.982,-36.864 9.244,-48.929 7.428,-14.316 20.477,-19.389 20.477,-19.389 l 93.326,13.227 c 0,0 8.88,9.064 12.686,28.271 2.786,14.06 2.997,25.549 3.262,35.518 0.541,20.298 -1.97,37.299 -3.262,43.855 -2.174,11.055 -8.879,20.479 -8.879,20.479 z m 39.142,-19.572 c -16.491,0 -16.672,-32.982 -16.672,-55.092 0,-25.188 -1.088,-58.712 15.946,-58.712 17.399,0 15.696,29.023 16.311,57.626 0,23.559 1.448,56.178 -15.585,56.178" />
          </g>
          <g
             transform="translate(76.1333,403.0098)"
             id="g48">
            <path
               inkscape:connector-curvature="0"
               id="path50"
               style="fill:#ffffff;fill-opacity:1;fill-rule:evenodd;stroke:none"
               d="m 0,0 134.463,19.209 c 0,0 9.825,2.21 23.558,-13.047 11.416,-12.688 10.997,-40.407 10.873,-50.379 -0.363,-29.721 -1.63,-38.056 -6.16,-49.292 -6.283,-15.578 -14.318,-17.578 -14.318,-17.578 L 0,-90.429 Z m 61.801,-0.06 v -91.932 h 12.74 c 0,0 6.695,0.889 11.019,4.82 7.574,6.886 7.574,32.023 7.23,43.729 -0.343,11.705 0.564,35.519 -8.135,40.231 -5.211,2.82 -12.867,3.152 -12.867,3.152 z" />
          </g>
          <g
             transform="translate(113.5229,150.9434)"
             id="g52">
            <path
               inkscape:connector-curvature="0"
               id="path54"
               style="fill:#231f20;fill-opacity:1;fill-rule:nonzero;stroke:none"
               d="M 0,0 H 33.808 L 32.75,-4.986 H 18.656 L 10.87,-41.637 H 5.241 l 7.792,36.651 H -1.061 Z" />
          </g>
          <g
             transform="translate(168.3472,109.3066)"
             id="g56">
            <path
               inkscape:connector-curvature="0"
               id="path58"
               style="fill:#231f20;fill-opacity:1;fill-rule:nonzero;stroke:none"
               d="m 0,0 h -5.103 l 4.215,19.83 c 0.874,4.117 0.281,6.787 -4.589,6.787 -4.177,0 -8.985,-2.436 -10.612,-10.093 L -19.601,0 h -5.105 l 8.849,41.637 h 5.106 l -3.267,-15.372 h 0.116 c 1.857,1.917 5.049,4.932 9.92,4.932 4.697,0 10.206,-1.916 8.368,-10.552 z" />
          </g>
          <g
             transform="translate(199.1309,118.8145)"
             id="g60">
            <path
               inkscape:connector-curvature="0"
               id="path62"
               style="fill:#231f20;fill-opacity:1;fill-rule:nonzero;stroke:none"
               d="m 0,0 c -0.655,-2.261 -4.285,-5.973 -9.099,-5.973 -5.856,0 -8.038,3.656 -6.695,9.974 H 6.359 c 2.283,10.731 -0.53,17.688 -9.288,17.688 -10.03,0 -16.146,-7.482 -18.144,-16.877 -1.86,-8.754 1.817,-15.192 10.342,-15.192 4.87,0 7.09,1.161 8.679,2.087 C 2.317,-5.74 4.622,-1.449 5.104,0 Z m -14.93,8.062 c 0.999,4.7 5.634,9.047 10.333,9.047 6.202,0 7.25,-4.347 6.541,-9.047 z" />
          </g>
          <g
             transform="translate(236.7427,127.166)"
             id="g64">
            <path
               inkscape:connector-curvature="0"
               id="path66"
               style="fill:#231f20;fill-opacity:1;fill-rule:nonzero;stroke:none"
               d="m 0,0 h 13.628 c 6.727,0 6.573,-4.004 5.845,-7.421 -0.333,-1.57 -1.502,-7.889 -1.232,-10.438 h 6.901 l 0.195,0.925 c -1.527,0.986 -1.635,1.857 -1.197,4.174 l 1.251,7.543 c 1.002,5.796 -1.153,6.838 -3.322,7.826 3,1.568 6.611,3.826 7.919,9.974 C 31.864,21.4 25.524,23.777 18.68,23.777 H -0.571 l -8.85,-41.636 h 5.626 z m 4.031,18.961 h 14.034 c 2.783,0 7.369,-0.522 6.002,-6.957 -1.307,-6.149 -5.88,-7.19 -9.998,-7.19 H 1.023 Z" />
          </g>
          <g
             transform="translate(276.1709,145.1416)"
             id="g68">
            <path
               inkscape:connector-curvature="0"
               id="path70"
               style="fill:#231f20;fill-opacity:1;fill-rule:nonzero;stroke:none"
               d="M 0,0 1.231,5.802 H 6.335 L 5.1,0 Z m -2.518,-35.835 h -5.1 l 6.446,30.326 h 5.103 z" />
          </g>
          <g
             transform="translate(313.5034,139.6328)"
             id="g72">
            <path
               inkscape:connector-curvature="0"
               id="path74"
               style="fill:#231f20;fill-opacity:1;fill-rule:nonzero;stroke:none"
               d="m 0,0 h -4.814 l -0.912,-4.291 h -0.116 c -0.847,1.74 -2.442,5.162 -7.948,5.162 -8.063,0 -14.048,-6.61 -15.862,-15.139 -1.538,-7.244 -0.582,-16.93 9.74,-16.93 4.059,0 7.134,1.914 8.923,4.057 l 0.049,0.237 h 0.116 l -0.27,-1.279 c -0.764,-3.594 -2.093,-10.671 -10.907,-10.671 -1.219,0 -5.918,0 -5.821,4.813 h -5.103 c -0.729,-8.057 6.077,-9.045 9.676,-9.045 14.031,0 16.408,10.902 17.331,15.253 z m -24.546,-15.079 c 0.825,3.888 2.823,11.37 10.71,11.37 7.363,0 6.486,-7.946 5.438,-12.876 -1.713,-8.06 -7.215,-10.206 -10.46,-10.206 -5.569,0 -7.104,5.046 -5.688,11.712" />
          </g>
          <g
             transform="translate(339.4141,109.3066)"
             id="g76">
            <path
               inkscape:connector-curvature="0"
               id="path78"
               style="fill:#231f20;fill-opacity:1;fill-rule:nonzero;stroke:none"
               d="m 0,0 h -5.103 l 4.215,19.83 c 0.875,4.117 0.282,6.787 -4.589,6.787 -4.174,0 -8.982,-2.436 -10.609,-10.093 L -19.6,0 h -5.103 l 8.849,41.637 h 5.104 l -3.268,-15.372 h 0.117 c 1.857,1.917 5.048,4.932 9.919,4.932 4.697,0 10.206,-1.916 8.371,-10.552 z" />
          </g>
          <g
             transform="translate(359.3423,135.3984)"
             id="g80">
            <path
               inkscape:connector-curvature="0"
               id="path82"
               style="fill:#231f20;fill-opacity:1;fill-rule:nonzero;stroke:none"
               d="m 0,0 -4.191,-19.714 c -0.503,-2.38 1.524,-2.38 2.567,-2.38 h 1.8 l -0.853,-3.998 c -1.892,-0.174 -3.389,-0.406 -3.912,-0.406 -5.046,0 -5.544,2.843 -4.768,6.491 L -5.103,0 h -4.118 l 0.902,4.234 h 4.117 l 1.801,8.468 h 5.1 L 0.899,4.234 H 5.772 L 4.87,0 Z" />
          </g>
          <g
             transform="translate(416.9873,138.4141)"
             id="g84">
            <path
               inkscape:connector-curvature="0"
               id="path86"
               style="fill:#231f20;fill-opacity:1;fill-rule:nonzero;stroke:none"
               d="m 0,0 c -0.014,7.307 -5.817,8.642 -9.822,8.642 -7.534,0 -14.808,-5.566 -17.139,-16.525 -2.082,-9.801 -0.204,-17.343 10.116,-17.343 3.656,0 10.345,1.744 14.317,11.425 h 5.452 c -5.661,-15.713 -18.567,-16.412 -21.697,-16.412 -9.453,0 -17.425,6.146 -14.022,22.153 2.723,12.817 11.914,21.689 24.034,21.689 C 1.968,13.629 6.118,6.961 5.449,0 Z" />
          </g>
          <g
             transform="translate(424.8711,124.4961)"
             id="g88">
            <path
               inkscape:connector-curvature="0"
               id="path90"
               style="fill:#231f20;fill-opacity:1;fill-rule:nonzero;stroke:none"
               d="m 0,0 c -1.663,-7.826 1.007,-16.002 10.69,-16.002 9.684,0 15.83,8.176 17.492,16.002 C 29.847,7.832 27.178,16.008 17.494,16.008 7.808,16.008 1.662,7.832 0,0 M 5.278,0 C 6.14,4.061 9.25,11.601 16.557,11.601 23.864,11.601 23.77,4.061 22.908,0 22.042,-4.058 18.934,-11.598 11.627,-11.598 4.32,-11.598 4.415,-4.058 5.278,0" />
          </g>
          <g
             transform="translate(480.9102,109.3066)"
             id="g92">
            <path
               inkscape:connector-curvature="0"
               id="path94"
               style="fill:#231f20;fill-opacity:1;fill-rule:nonzero;stroke:none"
               d="m 0,0 h -5.105 l 3.968,18.671 c 1.121,5.276 0.182,7.946 -4.808,7.946 -2.897,0 -8.395,-1.857 -10.147,-10.093 L -19.603,0 h -5.103 l 6.446,30.326 h 4.814 l -0.913,-4.291 h 0.117 c 1.445,1.624 5.038,5.162 10.259,5.162 4.698,0 10.205,-1.916 8.369,-10.552 z" />
          </g>
          <g
             transform="translate(513.7305,109.3066)"
             id="g96">
            <path
               inkscape:connector-curvature="0"
               id="path98"
               style="fill:#231f20;fill-opacity:1;fill-rule:nonzero;stroke:none"
               d="m 0,0 h -5.106 l 3.971,18.671 c 1.121,5.276 0.185,7.946 -4.807,7.946 -2.898,0 -8.399,-1.857 -10.148,-10.093 L -19.603,0 h -5.101 l 6.446,30.326 h 4.814 l -0.912,-4.291 h 0.116 c 1.448,1.624 5.041,5.162 10.258,5.162 4.699,0 10.206,-1.916 8.37,-10.552 z" />
          </g>
          <g
             transform="translate(544.5137,118.8145)"
             id="g100">
            <path
               inkscape:connector-curvature="0"
               id="path102"
               style="fill:#231f20;fill-opacity:1;fill-rule:nonzero;stroke:none"
               d="m 0,0 c -0.654,-2.261 -4.285,-5.973 -9.096,-5.973 -5.858,0 -8.041,3.656 -6.698,9.974 H 6.359 c 2.283,10.731 -0.533,17.688 -9.288,17.688 -10.033,0 -16.146,-7.482 -18.143,-16.877 -1.858,-8.754 1.818,-15.192 10.34,-15.192 4.874,0 7.088,1.161 8.68,2.087 C 2.317,-5.74 4.624,-1.449 5.101,0 Z m -14.928,8.062 c 0.997,4.7 5.632,9.047 10.331,9.047 6.205,0 7.25,-4.347 6.541,-9.047 z" />
          </g>
          <g
             transform="translate(577.9102,129.4268)"
             id="g104">
            <path
               inkscape:connector-curvature="0"
               id="path106"
               style="fill:#231f20;fill-opacity:1;fill-rule:nonzero;stroke:none"
               d="m 0,0 c 0.223,4.061 -1.519,6.497 -5.81,6.497 -6.318,0 -9.631,-6.032 -10.78,-11.428 -1.109,-5.217 -1.199,-11.654 5.816,-11.654 3.421,0 6.92,2.55 8.776,7.19 h 4.931 c -1.544,-4.813 -5.943,-11.597 -14.818,-11.597 -8.524,0 -12.198,6.437 -10.339,15.192 1.995,9.395 8.109,16.877 18.142,16.877 7.942,0 9.729,-5.799 9.01,-11.077 z" />
          </g>
          <g
             transform="translate(596.0547,135.3984)"
             id="g108">
            <path
               inkscape:connector-curvature="0"
               id="path110"
               style="fill:#231f20;fill-opacity:1;fill-rule:nonzero;stroke:none"
               d="m 0,0 -4.191,-19.714 c -0.503,-2.38 1.527,-2.38 2.569,-2.38 h 1.795 l -0.848,-3.998 c -1.891,-0.174 -3.391,-0.406 -3.914,-0.406 -5.044,0 -5.542,2.843 -4.768,6.491 L -5.104,0 h -4.118 l 0.903,4.234 h 4.117 l 1.798,8.468 H 2.698 L 0.898,4.234 H 5.771 L 4.87,0 Z" />
          </g>
          <g
             transform="translate(608.6807,145.1416)"
             id="g112">
            <path
               inkscape:connector-curvature="0"
               id="path114"
               style="fill:#231f20;fill-opacity:1;fill-rule:nonzero;stroke:none"
               d="M 0,0 1.231,5.802 H 6.335 L 5.104,0 Z m -2.515,-35.835 h -5.103 l 6.446,30.326 h 5.103 z" />
          </g>
          <g
             transform="translate(615.8877,124.4961)"
             id="g116">
            <path
               inkscape:connector-curvature="0"
               id="path118"
               style="fill:#231f20;fill-opacity:1;fill-rule:nonzero;stroke:none"
               d="m 0,0 c -1.662,-7.826 1.007,-16.002 10.693,-16.002 9.681,0 15.826,8.176 17.492,16.002 C 29.847,7.832 27.181,16.008 17.494,16.008 7.81,16.008 1.665,7.832 0,0 m 5.279,0 c 0.861,4.061 3.974,11.601 11.279,11.601 7.303,0 7.211,-7.54 6.347,-11.601 -0.86,-4.058 -3.97,-11.598 -11.275,-11.598 -7.31,0 -7.215,7.54 -6.351,11.598" />
          </g>
          <g
             transform="translate(671.9268,109.3066)"
             id="g120">
            <path
               inkscape:connector-curvature="0"
               id="path122"
               style="fill:#231f20;fill-opacity:1;fill-rule:nonzero;stroke:none"
               d="m 0,0 h -5.105 l 3.968,18.671 c 1.121,5.276 0.185,7.946 -4.807,7.946 -2.898,0 -8.396,-1.857 -10.148,-10.093 L -19.603,0 h -5.103 l 6.449,30.326 h 4.814 l -0.915,-4.291 h 0.116 c 1.448,1.624 5.038,5.162 10.258,5.162 4.699,0 10.206,-1.916 8.37,-10.552 z" />
          </g>
          <g
             transform="translate(691.9909,146.7638)"
             id="g124">
            <path
               inkscape:connector-curvature="0"
               id="path126"
               style="fill:#231f20;fill-opacity:1;fill-rule:nonzero;stroke:none"
               d="M 0,0 H 2.317 C 3.424,0 4.181,0.169 4.585,0.496 4.986,0.827 5.19,1.263 5.19,1.807 5.19,2.158 5.094,2.469 4.897,2.746 4.703,3.023 4.433,3.233 4.089,3.367 3.745,3.507 3.106,3.57 2.17,3.57 H 0 Z M -1.909,-6.663 V 5.174 H 2.157 C 3.548,5.174 4.554,5.066 5.174,4.846 5.798,4.63 6.291,4.248 6.663,3.701 7.032,3.16 7.217,2.577 7.217,1.97 7.217,1.104 6.908,0.35 6.288,-0.293 5.674,-0.932 4.853,-1.292 3.834,-1.371 4.251,-1.546 4.585,-1.753 4.84,-1.998 5.314,-2.463 5.896,-3.246 6.59,-4.347 L 8.031,-6.663 H 5.699 l -1.05,1.865 c -0.824,1.47 -1.492,2.386 -1.998,2.755 -0.35,0.274 -0.859,0.411 -1.528,0.411 H 0 V -6.663 Z M 2.915,8.601 c -1.547,0 -3.049,-0.394 -4.512,-1.19 -1.464,-0.789 -2.61,-1.922 -3.434,-3.395 -0.824,-1.473 -1.238,-3.001 -1.238,-4.601 0,-1.579 0.404,-3.1 1.216,-4.554 0.811,-1.454 1.947,-2.584 3.405,-3.398 1.457,-0.812 2.978,-1.216 4.563,-1.216 1.581,0 3.105,0.404 4.563,1.216 1.457,0.814 2.59,1.944 3.398,3.398 0.805,1.454 1.209,2.975 1.209,4.554 0,1.6 -0.41,3.128 -1.231,4.601 C 10.03,5.489 8.887,6.622 7.42,7.411 5.954,8.207 4.452,8.601 2.915,8.601 m 0,1.82 c 1.845,0 3.65,-0.471 5.406,-1.419 1.76,-0.948 3.131,-2.304 4.114,-4.067 0.98,-1.766 1.471,-3.602 1.471,-5.52 0,-1.894 -0.481,-3.717 -1.451,-5.467 -0.965,-1.75 -2.32,-3.106 -4.064,-4.073 -1.747,-0.968 -3.573,-1.451 -5.476,-1.451 -1.903,0 -3.73,0.483 -5.473,1.451 -1.747,0.967 -3.103,2.323 -4.077,4.073 -0.97,1.75 -1.457,3.573 -1.457,5.467 0,1.918 0.493,3.754 1.48,5.52 0.986,1.763 2.358,3.119 4.117,4.067 1.76,0.948 3.564,1.419 5.41,1.419" />
          </g>
        </g>
      </g>
    </g>
  </g>
</svg>
